<?xml version="1.0" encoding="UTF-8" standalone="no"?>
<!-- Created with Inkscape (http://www.inkscape.org/) -->

<svg
   width="39.303986mm"
   height="64.629875mm"
   viewBox="0 0 39.303985 64.629875"
   version="1.1"
   id="svg1"
   xml:space="preserve"
   inkscape:version="1.3.2 (091e20e, 2023-11-25, custom)"
   sodipodi:docname="motors_icon.svg"
   inkscape:export-filename="motors_icon.png"
   inkscape:export-xdpi="90.474281"
   inkscape:export-ydpi="90.474281"
   xmlns:inkscape="http://www.inkscape.org/namespaces/inkscape"
   xmlns:sodipodi="http://sodipodi.sourceforge.net/DTD/sodipodi-0.dtd"
   xmlns="http://www.w3.org/2000/svg"
   xmlns:svg="http://www.w3.org/2000/svg"><sodipodi:namedview
     id="namedview1"
     pagecolor="#ffffff"
     bordercolor="#666666"
     borderopacity="1.0"
     inkscape:showpageshadow="2"
     inkscape:pageopacity="0.0"
     inkscape:pagecheckerboard="0"
     inkscape:deskcolor="#d1d1d1"
     inkscape:document-units="mm"
     inkscape:zoom="0.5007929"
     inkscape:cx="1133.203"
     inkscape:cy="735.83311"
     inkscape:window-width="1920"
     inkscape:window-height="991"
     inkscape:window-x="-9"
     inkscape:window-y="1341"
     inkscape:window-maximized="1"
     inkscape:current-layer="layer1" /><defs
     id="defs1" /><g
     inkscape:label="Layer 1"
     inkscape:groupmode="layer"
     id="layer1"
     transform="translate(-2.0159351,0.1911926)"><path
       style="fill:#00d4aa;stroke-width:1.04412"
       d="m 62.284019,183.50306 -3.736898,-3.5079 v -19.79819 -19.79819 l 3.259936,-3.61915 3.259935,-3.61916 h 4.298523 4.298521 v -4.95424 c 0,-3.37463 0.144597,-5.09159 0.453507,-5.38504 0.617706,-0.58679 7.545434,-0.58679 8.163132,0 0.308914,0.29345 0.453515,2.01041 0.453515,5.38504 v 4.95424 h 4.298515 4.298522 l 3.259941,3.61916 3.25994,3.61915 v 19.78611 19.78611 l -3.705495,3.51998 -3.705485,3.51999 h -12.20961 -12.2096 z m 28.764477,-2.41565 2.43466,-2.33352 H 78.199108 62.915069 l 2.434663,2.33352 2.434664,2.33353 h 10.414712 10.414717 z m 3.212343,-9.33408 v -5.38505 H 78.199108 62.137388 l -0.105639,5.00876 c -0.05811,2.75481 -0.02022,5.22023 0.08419,5.4787 0.153127,0.37907 3.279576,0.45183 16.167367,0.37629 l 15.977531,-0.0936 z M 63.082196,153.77325 c 0,-8.62398 -0.101354,-10.94746 -0.472404,-10.83007 -0.360258,0.11396 -0.496243,2.61288 -0.572828,10.52638 -0.05523,5.70733 -0.01805,10.58086 0.08262,10.83008 0.100679,0.24922 0.358446,0.45313 0.572827,0.45313 0.259267,0 0.389784,-3.67645 0.389784,-10.97952 z m 3.779228,0.0299 v -10.9496 H 65.916617 64.97181 v 10.9496 10.94961 h 0.944807 0.944807 z m 3.779229,0 v -10.9496 h -0.944808 -0.944806 v 10.9496 10.94961 h 0.944806 0.944808 z m 6.613652,0 v -10.7701 l -2.36202,-0.10688 -2.362017,-0.10687 v 10.98385 10.98386 l 2.362017,-0.10688 2.36202,-0.10687 z m 5.668837,0 v -10.7701 h -1.889605 -1.889616 l -0.100379,10.40673 c -0.05517,5.7237 -0.01446,10.61955 0.09063,10.87967 0.130289,0.32253 0.7632,0.43809 1.990038,0.36338 l 1.798985,-0.10957 z m 4.724048,-0.0217 v -10.97127 l -1.417218,0.11142 -1.417215,0.11142 -0.100378,10.40673 c -0.05528,5.7237 -0.01811,10.61063 0.0826,10.85985 0.1007,0.24922 0.783618,0.45313 1.517636,0.45313 h 1.334601 z m 3.77922,0.0217 v -10.9496 h -0.944802 -0.944803 v 10.9496 10.94961 h 0.944803 0.944802 z m 2.834429,0 c 0,-8.24909 -0.108563,-10.74463 -0.472411,-10.85984 -0.37107,-0.1175 -0.472402,2.21186 -0.472402,10.85984 0,8.648 0.101343,10.97735 0.472402,10.85985 0.363848,-0.1152 0.472411,-2.61075 0.472411,-10.85985 z m -1.012775,-12.7588 c -0.07199,-0.20525 -0.894002,-1.25424 -1.826624,-2.33109 l -1.695683,-1.95789 H 78.199108 66.672462 l -1.695675,1.95789 c -0.932621,1.07685 -1.754602,2.12584 -1.826626,2.33109 -0.08917,0.25412 4.712284,0.37319 15.048947,0.37319 10.336674,0 15.13813,-0.11907 15.048956,-0.37319 z m -13.91518,-10.57641 v -4.48754 h -1.133776 -1.133765 v 4.48754 4.48754 h 1.133765 1.133776 z"
       id="path1" /><path
       style="fill:#00d4aa;stroke-width:1.04412"
       d="m 5.7320575,61.287518 -3.73689,-3.5079 V 37.98142 18.183237 l 3.25993,-3.61915 3.25994,-3.61916 h 4.2985205 4.29852 V 5.9906836 c 0,-3.37463 0.1446,-5.09159402 0.45351,-5.38504202 0.6177,-0.586786 7.54543,-0.586786 8.16313,0 0.30891,0.293448 0.45351,2.01041202 0.45351,5.38504202 v 4.9542434 h 4.29852 4.29852 l 3.25994,3.61916 3.25994,3.61915 v 19.786104 19.786117 l -3.70549,3.51998 -3.70549,3.51999 H 21.678558 9.4689575 Z m 28.7644805,-2.41565 2.43466,-2.33352 H 21.647148 6.3631075 l 2.43467,2.33352 2.4346605,2.33352 h 10.41471 10.41472 z m 3.21234,-9.33409 v -5.38504 H 21.647148 5.5854275 l -0.10564,5.00876 c -0.0581,2.75481 -0.0202,5.22022 0.0842,5.47869 0.15312,0.37908 3.27957,0.45184 16.1673605,0.3763 l 15.97753,-0.0936 z M 6.5302375,31.557706 c 0,-8.62398 -0.10135,-10.947462 -0.4724,-10.830076 -0.36026,0.113966 -0.49625,2.61288 -0.57283,10.526389 -0.0552,5.707322 -0.0181,10.580854 0.0826,10.830079 0.10067,0.24922 0.35844,0.45313 0.57282,0.45313 0.25927,0 0.38979,-3.676449 0.38979,-10.979522 z m 3.7792305,0.02992 v -10.9496 h -0.9448105 -0.94481 v 10.949598 10.949614 h 0.94481 0.9448105 z m 3.77923,0 v -10.9496 h -0.94481 -0.94481 v 10.949598 10.949614 h 0.94481 0.94481 z m 6.61365,0 V 20.817529 l -2.36202,-0.106884 -2.36202,-0.106873 v 10.983852 10.983864 l 2.36202,-0.10688 2.36202,-0.10688 z m 5.66884,0 V 20.817529 h -1.88961 -1.88962 l -0.10037,10.406724 c -0.0552,5.723706 -0.0145,10.619555 0.0906,10.879675 0.13028,0.32252 0.7632,0.43809 1.99003,0.36337 l 1.79899,-0.10957 z m 4.72404,-0.02168 V 20.594674 l -1.41721,0.111422 -1.41722,0.111423 -0.10038,10.406724 c -0.0553,5.723705 -0.0181,10.61063 0.0826,10.859855 0.1007,0.24922 0.78362,0.45313 1.51764,0.45313 h 1.3346 z m 3.77922,0.02168 v -10.9496 h -0.9448 -0.9448 v 10.949598 10.949614 h 0.9448 0.9448 z m 2.83443,0 c 0,-8.249088 -0.10856,-10.744634 -0.47241,-10.859842 -0.37107,-0.117497 -0.4724,2.211857 -0.4724,10.859842 0,8.647996 0.10134,10.977352 0.4724,10.859852 0.36385,-0.11521 0.47241,-2.610753 0.47241,-10.859852 z m -1.01277,-12.758804 c -0.072,-0.205249 -0.894,-1.25424 -1.82663,-2.331083 l -1.69568,-1.957892 h -11.52665 -11.52664 l -1.6956805,1.957892 c -0.93262,1.076843 -1.7546,2.125834 -1.82663,2.331083 -0.0892,0.254127 4.7122905,0.373192 15.0489505,0.373192 10.33668,0 15.13813,-0.119065 15.04896,-0.373192 z M 22.780928,8.2524146 v -4.487539 h -1.13378 -1.13376 v 4.487539 4.4875404 h 1.13376 1.13378 z"
       id="path1-4"
       inkscape:export-filename="motors_icon.png"
       inkscape:export-xdpi="90.474281"
       inkscape:export-ydpi="90.474281" /><path
       style="opacity:0.39;fill:#00d4aa;fill-opacity:1;stroke:#999999;stroke-width:0.00390008;stroke-linejoin:round"
       d="m 24.389338,31.799993 c -0.002,-8.5e-4 -0.004,-0.002 -0.005,-0.0027 -0.002,-0.0022 -0.003,-0.04814 -0.002,-0.143501 2.5e-4,-0.0525 5e-4,-0.116694 10e-4,-0.142659 l 5e-4,-0.04721 h 0.0288 0.0288 v 0.167562 0.167562 l -0.002,6e-4 c -10e-4,3.5e-4 -0.012,9e-4 -0.024,0.0012 -0.0175,4.75e-4 -0.0224,2.75e-4 -0.0256,-9.5e-4 z"
       id="path6" /><path
       id="path15"
       style="opacity:1;fill:#00d4aa;fill-opacity:1;stroke:#afe9dd;stroke-width:0.499208;stroke-linejoin:round"
       d="m 5.4497293,44.122558 0.00258,5.184179 c 0.00111,2.851322 0.054372,5.266619 0.1183402,5.367631 0.063966,0.101013 0.3452998,0.228068 0.6252845,0.282155 0.6332961,0.122332 27.807777,0.160707 30.008504,0.04237 l 1.605587,-0.0863 v -5.395018 -5.39502 H 21.630138 Z" /><path
       style="opacity:1;fill:#00d4aa;fill-opacity:1;stroke:#afe9dd;stroke-width:0.499208;stroke-linejoin:round"
       d="M 10.108878,19.038796 C 8.3488297,18.986948 6.8680997,18.903837 6.8183659,18.854103 6.6934376,18.729178 7.1326565,18.139088 8.7931947,16.200923 l 1.4264583,-1.664949 11.45082,0.0078 11.45082,0.0078 0.726453,0.858547 c 1.903638,2.249791 2.636031,3.166597 2.638719,3.303129 0.0016,0.08425 -0.326377,0.183732 -0.756547,0.229434 -1.169548,0.124251 -22.011714,0.202456 -25.62104,0.09613 z"
       id="path16" /></g></svg>
